<svg id="Layer_1" data-name="Layer 1" xmlns="http://www.w3.org/2000/svg" viewBox="0 0 58.62 58.86"><defs><style>.cls-1{fill:#414042;}</style></defs><title>cvo_instagram</title><circle class="cls-1" cx="29.61" cy="30.07" r="5.78"/><path class="cls-1" d="M29.61,16.15a13.83,13.83,0,0,1,8.05,2.58h21V14.65A14.67,14.67,0,0,0,44,0H14.65A14.67,14.67,0,0,0,0,14.65v4.08H21.56A13.83,13.83,0,0,1,29.61,16.15Zm12-7.25a1.63,1.63,0,0,1,1.63-1.63h5A1.63,1.63,0,0,1,49.91,8.9v5a1.63,1.63,0,0,1-1.63,1.63h-5a1.63,1.63,0,0,1-1.63-1.63v-5Z"/><path class="cls-1" d="M43.53,30.07A13.92,13.92,0,1,1,17,24.16H0V44.21A14.67,14.67,0,0,0,14.65,58.86H44A14.67,14.67,0,0,0,58.62,44.21V24.16H42.21A13.83,13.83,0,0,1,43.53,30.07Z"/></svg>