<svg xmlns="http://www.w3.org/2000/svg" viewBox="0 0 58.62 58.86">
  <title>instagram</title>
  <circle cx="29.61" cy="30.07" r="5.78" style="fill: #414042"/>
  <path d="M29.61,16.15a13.83,13.83,0,0,1,8,2.58h21V14.65A14.67,14.67,0,0,0,44,0H14.65A14.67,14.67,0,0,0,0,14.65v4.08H21.56A13.83,13.83,0,0,1,29.61,16.15Zm12-7.25a1.63,1.63,0,0,1,1.63-1.63h5a1.63,1.63,0,0,1,1.67,1.59s0,0,0,0v5a1.63,1.63,0,0,1-1.63,1.63h-5a1.63,1.63,0,0,1-1.63-1.63h0v-5h0Z" style="fill: #414042"/>
  <path d="M43.53,30.07A13.92,13.92,0,1,1,17,24.16H0v20A14.67,14.67,0,0,0,14.65,58.86H44A14.67,14.67,0,0,0,58.62,44.21v-20H42.21A13.83,13.83,0,0,1,43.53,30.07Z" style="fill: #414042"/>
</svg>
