<svg id="Isolation_Mode" data-name="Isolation Mode" xmlns="http://www.w3.org/2000/svg" viewBox="0 0 35.09 34.6"><defs><style>.cls-1{fill:#231f20;}</style></defs><title>cvo_linkedin</title><rect class="cls-1" x="0.2" y="10.46" width="7.5" height="24.14"/><path class="cls-1" d="M3.7,7.5A3.7,3.7,0,0,1-.2,3.75,3.73,3.73,0,0,1,3.8,0,3.71,3.71,0,0,1,7.75,3.75,3.74,3.74,0,0,1,3.7,7.5Z" transform="translate(0.2)"/><path class="cls-1" d="M34.9,34.6h-7.5V21.22c0-3.11-1.09-5.23-3.8-5.23a4.12,4.12,0,0,0-3.85,2.81,5.4,5.4,0,0,0-.25,1.88V34.6H12V18.16c0-3-.1-5.53-0.2-7.7h6.51l0.35,3.36H18.8a8.67,8.67,0,0,1,7.45-3.9c4.94,0,8.64,3.31,8.64,10.42V34.6Z" transform="translate(0.2)"/></svg>