<svg xmlns="http://www.w3.org/2000/svg" viewBox="0 0 35.09 34.6">
  <title>linkedin</title>
  <rect x="0.2" y="10.46" width="7.5" height="24.14" style="fill: #231f20"/>
  <path d="M3.9,7.5A3.7,3.7,0,0,1,0,4q0-.13,0-0.26A3.73,3.73,0,0,1,3.7,0H4A3.71,3.71,0,0,1,7.94,3.46q0,0.14,0,.29A3.74,3.74,0,0,1,4.23,7.51H3.9Z" style="fill: #231f20"/>
  <path d="M35.1,34.6H27.6V21.22c0-3.11-1.09-5.23-3.8-5.23A4.12,4.12,0,0,0,20,18.8a5.4,5.4,0,0,0-.25,1.88V34.6H12.2V18.16c0-3-.1-5.53-0.2-7.7h6.51l0.35,3.36H19a8.67,8.67,0,0,1,7.45-3.9c4.94,0,8.64,3.31,8.64,10.42V34.6h0Z" style="fill: #231f20"/>
</svg>
