<svg xmlns="http://www.w3.org/2000/svg" viewBox="0 0 35.04 28.48">
  <title>twitter</title>
  <path d="M31.46,7.09V8c0,9.47-7.21,20.47-20.44,20.47A20.36,20.36,0,0,1,0,25.26a14.63,14.63,0,0,0,1.71.1,14.42,14.42,0,0,0,8.93-3.08,7.2,7.2,0,0,1-6.72-5,7.21,7.21,0,0,0,3.25-.12,7.19,7.19,0,0,1-5.77-7V10.07a7.15,7.15,0,0,0,3.26.9,7.2,7.2,0,0,1-2.23-9.6A20.41,20.41,0,0,0,17.27,8.88,7.19,7.19,0,0,1,29.51,2.27,14.39,14.39,0,0,0,34.08.49a7.21,7.21,0,0,1-3.2,4A14.36,14.36,0,0,0,35,3.36,14.61,14.61,0,0,1,31.46,7.09Z" style="fill: #231f20"/>
</svg>
