<svg id="Isolation_Mode" data-name="Isolation Mode" xmlns="http://www.w3.org/2000/svg" viewBox="0 0 35.04 28.48"><defs><style>.cls-1{fill:#231f20;}</style></defs><title>cvo_twitter</title><path class="cls-1" d="M33.58,9.6q0,0.46,0,.93C33.6,20,26.37,31,13.14,31a20.36,20.36,0,0,1-11-3.23,14.63,14.63,0,0,0,1.71.1,14.42,14.42,0,0,0,8.93-3.08,7.2,7.2,0,0,1-6.72-5,7.21,7.21,0,0,0,3.25-.12,7.19,7.19,0,0,1-5.77-7s0-.06,0-0.09a7.15,7.15,0,0,0,3.26.9,7.2,7.2,0,0,1-2.23-9.6,20.41,20.41,0,0,0,14.82,7.51A7.19,7.19,0,0,1,31.63,4.78,14.39,14.39,0,0,0,36.2,3,7.21,7.21,0,0,1,33,7a14.36,14.36,0,0,0,4.13-1.13A14.61,14.61,0,0,1,33.58,9.6Z" transform="translate(-2.12 -2.51)"/></svg>