<?xml version="1.0" encoding="utf-8"?>
<!-- Generator: Adobe Illustrator 19.2.1, SVG Export Plug-In . SVG Version: 6.00 Build 0)  -->
<!DOCTYPE svg PUBLIC "-//W3C//DTD SVG 1.1//EN" "http://www.w3.org/Graphics/SVG/1.1/DTD/svg11.dtd">
<svg version="1.1" id="Layer_1" xmlns="http://www.w3.org/2000/svg" xmlns:xlink="http://www.w3.org/1999/xlink" x="0px" y="0px"
	 viewBox="0 0 102 102.2" style="enable-background:new 0 0 102 102.2;" xml:space="preserve">
<path d="M51,0C22.9,0,0,22.9,0,51s22.9,51,51,51s51-22.9,51-51S79.1,0,51,0z M100,51c0,1.7-0.1,3.4-0.3,5l-8.6-1
	c0.1-1.3,0.2-2.6,0.2-4c0-1.3-0.1-2.5-0.2-3.7l8.7-1C99.9,47.8,100,49.4,100,51z M2,51c0-1.7,0.1-3.3,0.2-4.9l8.7,1.1
	c-0.1,1.3-0.2,2.6-0.2,3.9c0,1.3,0.1,2.6,0.2,3.9l-8.7,1C2.1,54.3,2,52.7,2,51z M89.1,37.8l8.2-3.1c1.1,3,1.9,6.2,2.3,9.5l-8.7,1
	C90.5,42.7,89.9,40.2,89.1,37.8z M89.3,51c0,2.5-0.3,5-0.7,7.5l-8.6-2c0.3-1.8,0.5-3.6,0.5-5.5s-0.2-3.8-0.6-5.7l8.6-1.9
	C89,45.8,89.3,48.4,89.3,51z M51,78.5c-15.2,0-27.5-12.3-27.5-27.5S35.8,23.5,51,23.5S78.5,35.8,78.5,51S66.2,78.5,51,78.5z
	 M51.9,89.3v-8.8c3.9-0.1,7.6-1,11-2.5l3.8,7.9C62.2,87.9,57.2,89.1,51.9,89.3z M35.2,85.8l3.8-7.9c3.4,1.5,7.1,2.4,10.9,2.5v8.8
	C44.7,89.1,39.7,87.9,35.2,85.8z M12.7,51c0-2.7,0.3-5.2,0.8-7.8l8.6,2c-0.4,1.9-0.6,3.8-0.6,5.8c0,1.8,0.2,3.6,0.5,5.4l-8.6,2
	C13,55.9,12.7,53.5,12.7,51z M50,12.7v8.8c-3.8,0.1-7.5,1-10.8,2.4L35.4,16C39.9,14.1,44.8,12.9,50,12.7z M66.7,16.1L62.9,24
	c-3.4-1.5-7-2.4-10.9-2.5v-8.8C57.2,12.9,62.2,14.1,66.7,16.1z M88.3,35.9c-1-2.4-2.2-4.7-3.6-6.8l7.2-4.9c1.8,2.7,3.3,5.6,4.5,8.7
	L88.3,35.9z M88.1,41.4l-8.6,1.9c-1-3.7-2.6-7-4.9-10l6.9-5.5C84.5,31.9,86.8,36.5,88.1,41.4z M73.4,31.8C71,29,68,26.6,64.7,24.9
	l3.8-7.9c4.5,2.3,8.5,5.5,11.7,9.4L73.4,31.8z M70.8,15.9l4.1-7.7c2.9,1.6,5.6,3.5,8,5.6l-5.8,6.5C75.2,18.7,73,17.2,70.8,15.9z
	 M69,15c-2.3-1.1-4.7-2.1-7.2-2.8L64,3.8c3.2,0.9,6.3,2.1,9.1,3.5L69,15z M59.9,11.7c-2.5-0.6-5.1-0.9-7.8-1V2
	c3.4,0.1,6.7,0.5,9.9,1.2L59.9,11.7z M50.1,10.7c-2.6,0.1-5.2,0.4-7.7,0.9l-2.1-8.5c3.2-0.7,6.4-1.1,9.8-1.2V10.7z M40.5,12.1
	c-2.5,0.7-4.9,1.6-7.2,2.7l-4-7.7c2.9-1.5,6-2.6,9.2-3.5L40.5,12.1z M31.5,15.8c-2.3,1.3-4.4,2.7-6.4,4.4l-5.8-6.5
	c2.5-2.1,5.2-4,8.1-5.6L31.5,15.8z M33.6,16.9l3.8,7.9c-3.3,1.7-6.3,4.1-8.7,6.9l-6.9-5.5C25.1,22.4,29.1,19.2,33.6,16.9z
	 M20.6,27.8l6.9,5.5c-2.2,2.9-3.9,6.3-4.9,10l-8.6-2C15.3,36.3,17.5,31.8,20.6,27.8z M13.7,35.7l-8.1-3.1c1.2-3.1,2.8-6,4.6-8.7
	l7.2,5C15.9,31,14.7,33.3,13.7,35.7z M13,37.6c-0.9,2.4-1.5,4.9-1.9,7.5L2.4,44c0.5-3.3,1.3-6.5,2.4-9.6L13,37.6z M11.2,56.9
	c0.4,2.6,1,5.1,1.9,7.5l-8.2,3.1c-1.1-3.1-1.9-6.3-2.4-9.6L11.2,56.9z M13.7,66.2c1,2.4,2.2,4.7,3.6,6.8l-7.1,5
	c-1.8-2.7-3.3-5.6-4.6-8.7L13.7,66.2z M13.9,60.3l8.6-1.9c0.9,3.7,2.6,7.1,4.8,10.1L20.4,74C17.3,69.9,15.1,65.3,13.9,60.3z
	 M28.5,70c2.4,2.9,5.4,5.3,8.7,7l-3.8,8c-4.5-2.4-8.5-5.6-11.8-9.5L28.5,70z M31.5,86.2l-4.1,7.7c-2.9-1.6-5.6-3.5-8.1-5.6l5.8-6.5
	C27.1,83.5,29.2,85,31.5,86.2z M33.3,87.1c2.3,1.1,4.7,2,7.2,2.7l-2.1,8.5c-3.2-0.9-6.3-2-9.2-3.5L33.3,87.1z M42.4,90.4
	c2.5,0.5,5,0.8,7.7,0.9v8.7c-3.3-0.1-6.6-0.5-9.7-1.2L42.4,90.4z M52.1,91.3c2.6-0.1,5.2-0.4,7.6-0.9l2.1,8.5
	c-3.1,0.7-6.4,1.1-9.7,1.2L52.1,91.3z M61.7,89.8c2.5-0.7,4.9-1.6,7.2-2.7l4,7.7c-2.9,1.5-6,2.6-9.2,3.5L61.7,89.8z M70.6,86.2
	c2.2-1.3,4.4-2.7,6.3-4.4l5.8,6.5c-2.5,2.1-5.2,4-8,5.6L70.6,86.2z M68.5,85l-3.8-7.9c3.3-1.8,6.3-4.2,8.8-7l6.9,5.5
	C77.1,79.5,73,82.7,68.5,85z M81.6,74l-6.9-5.5c2.2-3,3.9-6.4,4.8-10.1l8.6,2C86.8,65.4,84.6,70,81.6,74z M88.3,66.3l8.1,3.1
	c-1.2,3-2.8,5.9-4.6,8.7l-7.2-5C86.1,70.9,87.3,68.6,88.3,66.3z M89,64.4c0.8-2.4,1.5-4.9,1.9-7.5l8.7,1.1c-0.5,3.3-1.3,6.5-2.4,9.5
	L89,64.4z M90.8,22.5l-7.2,4.9c-1.5-2.1-3.2-4-5.1-5.8l5.8-6.5C86.8,17.4,88.9,19.9,90.8,22.5z M17.9,14.9l5.8,6.5
	c-1.9,1.8-3.6,3.7-5.1,5.8l-7.2-5C13.3,19.6,15.4,17.2,17.9,14.9z M11.3,79.7l7.2-4.9c1.5,2.1,3.2,4,5.1,5.8L17.8,87
	C15.4,84.8,13.2,82.3,11.3,79.7z M84.2,87l-5.8-6.5c1.9-1.7,3.6-3.7,5.1-5.7l7.2,5C88.8,82.3,86.6,84.8,84.2,87z"/>
</svg>
