<?xml version="1.0" encoding="utf-8"?>
<!-- Generator: Adobe Illustrator 19.2.1, SVG Export Plug-In . SVG Version: 6.00 Build 0)  -->
<!DOCTYPE svg PUBLIC "-//W3C//DTD SVG 1.1//EN" "http://www.w3.org/Graphics/SVG/1.1/DTD/svg11.dtd">
<svg version="1.1" id="Layer_1" xmlns="http://www.w3.org/2000/svg" xmlns:xlink="http://www.w3.org/1999/xlink" x="0px" y="0px"
	 viewBox="0 0 144 68.8" style="enable-background:new 0 0 144 68.8;" xml:space="preserve">
<style type="text/css">
	.st0{enable-background:new    ;}
	.st1{fill:#EF4823;}
	.st2{fill:none;stroke:#EF4823;stroke-width:0.4;stroke-miterlimit:10;}
</style>
<g class="st0">
	<path class="st1" d="M50.1,16.2L49.3,17c-4-3.5-9.3-5.6-15.1-5.6c-12.4,0-22.6,9.8-22.6,21.9s10.2,22,22.6,22
		c5.8,0,11.1-2.1,15.1-5.7l0.9,0.9c-4.3,3.7-9.9,6.1-16,6.1c-13.1,0-23.9-10.5-23.9-23.3s10.8-23.2,23.9-23.2
		C40.3,10.2,45.9,12.4,50.1,16.2z"/>
	<path class="st1" d="M74,56.7L54.5,10.2h1.5l18.6,45l18.6-45h1.6L75.4,56.7H74z"/>
	<path class="st1" d="M129.7,39.5c0,10-7.1,17.2-16.7,17.2c-9.6,0-16.7-7.2-16.7-17.2c0-10,7.1-17.2,16.7-17.2
		C122.6,22.3,129.7,29.5,129.7,39.5z M97.6,39.5c0,9.4,6.5,15.9,15.4,15.9c8.9,0,15.4-6.5,15.4-15.9c0-9.3-6.5-15.8-15.4-15.8
		C104.1,23.6,97.6,30.1,97.6,39.5z"/>
</g>
<g class="st0">
	<path class="st1" d="M116.4,13.7c1.3,0,2.1-0.9,2.1-2.5h0.8c0,2.1-1.1,3.3-2.9,3.3c-2.8,0-5-2.9-7.2-2.9c-1.3,0-2.1,0.9-2.1,2.5
		h-0.8c0-2.1,1.1-3.3,2.9-3.3C111.6,10.8,114.2,13.7,116.4,13.7z"/>
</g>
<g class="st0">
	<path class="st2" d="M116.4,13.7c1.3,0,2.1-0.9,2.1-2.5h0.8c0,2.1-1.1,3.3-2.9,3.3c-2.8,0-5-2.9-7.2-2.9c-1.3,0-2.1,0.9-2.1,2.5
		h-0.8c0-2.1,1.1-3.3,2.9-3.3C111.6,10.8,114.2,13.7,116.4,13.7z"/>
</g>
</svg>
